# xmcd
#
# Track frame offsets:
# 150
# 13477
# 32049
# 49604
# 67077
# 88701
# 108922
# 124275
# 143391
# 164120
# 181201
# 200010
# 215363
# 233557
# 248912
# 265296
# 282302
# 297692
# 312643
#
# Disc length: 4417 seconds
#
#
# Revision: 0
# Processed by: cddbd v1.5.1PL0 Copyright (c) Steve Scherf et al.
# Submitted via: FreeRIP 2.80 
#
DISCID=2c113f13
DTITLE=Shania Twain - Up
DYEAR=1900
DGENRE=Rock
TTITLE0=Up
TTITLE1=I'm Gonna Getcha Good
TTITLE2=She's Just Not a Pretty Face
TTITLE3=Juanita
TTITLE4=Forever and for Always
TTITLE5=Ain't No Particular Way
TTITLE6=It Only Hurts When I'm Breathing
TTITLE7=Nah
TTITLE8=(Wanna Get to Know You) That Good
TTITLE9=C'est la Vie
TTITLE10=I'm Jealous
TTITLE11=Ka-Ching
TTITLE12=Thankyou Baby(For makin'someday come so soon)
TTITLE13=Waiter! Bring Me Water!
TTITLE14=What a Way to Wanna Be
TTITLE15=I Ain't Going Down
TTITLE16=I'm Not in the Mood (To Say No)
TTITLE17=In My Car (I'll Be the Driver)
TTITLE18=When You Kiss Me
EXTD=
EXTT0=
EXTT1=
EXTT2=
EXTT3=
EXTT4=
EXTT5=
EXTT6=
EXTT7=
EXTT8=
EXTT9=
EXTT10=
EXTT11=
EXTT12=
EXTT13=
EXTT14=
EXTT15=
EXTT16=
EXTT17=
EXTT18=
PLAYORDER=
